<svg xmlns="http://www.w3.org/2000/svg" width="102.728" height="83.323" viewBox="0 0 102.728 83.323">
  <g id="Group_1509" data-name="Group 1509" transform="translate(-306.35 -649.484) rotate(-17)">
    <path id="Path_5412" data-name="Path 5412" d="M148.619,748.6v.044H161.43a1.28,1.28,0,0,0,1.281-1.281V726.431a1.282,1.282,0,0,0-1.281-1.281H133.943a1.281,1.281,0,0,0-1.281,1.281v20.938a1.28,1.28,0,0,0,1.281,1.281h12.812V748.6Zm-13.4-2.516V727.709H160.15v18.379Z" transform="translate(-12.285)" fill="#fff"/>
    <path id="Path_5413" data-name="Path 5413" d="M115.329,806.386V785.448a1.281,1.281,0,0,0-1.281-1.28H86.562a1.281,1.281,0,0,0-1.28,1.28v20.938a1.281,1.281,0,0,0,1.28,1.281h27.487A1.282,1.282,0,0,0,115.329,806.386Zm-2.559-1.279H87.841V786.729H112.77Z" transform="translate(0 -15.303)" fill="#fff"/>
    <path id="Path_5414" data-name="Path 5414" d="M133.943,784.168a1.281,1.281,0,0,0-1.279,1.28v20.938a1.281,1.281,0,0,0,1.279,1.281h27.488a1.281,1.281,0,0,0,1.279-1.281V785.448a1.281,1.281,0,0,0-1.279-1.28Zm26.208,20.94H135.223V786.729h24.928Z" transform="translate(-12.286 -15.303)" fill="#fff"/>
    <path id="Path_5415" data-name="Path 5415" d="M181.323,784.168a1.28,1.28,0,0,0-1.278,1.28v20.938a1.281,1.281,0,0,0,1.278,1.281h27.489a1.281,1.281,0,0,0,1.278-1.281V785.448a1.28,1.28,0,0,0-1.278-1.28Zm26.208,20.94H182.6V786.729h24.928Z" transform="translate(-24.571 -15.303)" fill="#fff"/>
    <path id="Path_5416" data-name="Path 5416" d="M106.575,775.29h1.865v-6.97h31.55v6.97h1.865v-6.97H173.4v6.97h1.866v-8.835H141.855v-9.641H139.99v9.641H106.575Z" transform="translate(-5.521 -8.21)" fill="#fff"/>
  </g>
</svg>
