<svg id="Group_1507" data-name="Group 1507" xmlns="http://www.w3.org/2000/svg" width="79.82" height="75.935" viewBox="0 0 79.82 75.935">
  <path id="Path_5405" data-name="Path 5405" d="M345.107,328.719a1.219,1.219,0,0,0,1.945.69l3.21-2.538v15.671h-4.024a1.218,1.218,0,0,0-1.217,1.219V347.7a1.22,1.22,0,0,0,1.217,1.219h16.507a1.222,1.222,0,0,0,1.22-1.219v-3.936a1.22,1.22,0,0,0-1.22-1.219h-4V318.865a1.218,1.218,0,0,0-1.218-1.219h-5.185a1.2,1.2,0,0,0-.693.217l-7.076,4.9a1.216,1.216,0,0,0-.5,1.264ZM352.385,319h5.006v24.9h5.22v3.665H346.376V343.9h5.241V324.073l-5.234,4.138-.964-4.389Z" transform="translate(-312.837 -302.451)" fill="#fff"/>
  <path id="Path_5406" data-name="Path 5406" d="M298.035,357.665a1.17,1.17,0,0,0,1.013.792l10.327.839.32,9.583a1.171,1.171,0,0,0,1.953.83l19.22-17.33.924,2.529a2.661,2.661,0,0,0,2.441,1.968,2.889,2.889,0,0,0,2.2-1.181l3.413-4.177a1.464,1.464,0,0,1,1.131-.548,1.444,1.444,0,0,1,.986.389l4,3.628a3.019,3.019,0,0,0,2.011.867,2.311,2.311,0,0,0,1.433-.5l13.9,15.412a1.17,1.17,0,0,0,2.031-.648l1.1-9.377,10.294-.953a1.17,1.17,0,0,0,.761-1.949l-17.086-18.95a1.377,1.377,0,0,1,.058-.125,1.448,1.448,0,0,1,.938-.681l5.251-1.226a2.557,2.557,0,0,0,1.342-4.517l-3.737-3.891a1.466,1.466,0,0,1-.415-1.082,1.438,1.438,0,0,1,.515-1.036l4.081-3.529a2.556,2.556,0,0,0-.914-4.621l-5.114-1.711a1.436,1.436,0,0,1-.9-1.923l1.971-5.018a2.809,2.809,0,0,0-.151-2.669,2.664,2.664,0,0,0-2.8-1l-5.325.861a1.444,1.444,0,0,1-1.688-1.286l-.586-5.362a2.564,2.564,0,0,0-2.461-2.559,3.12,3.12,0,0,0-1.859.687l-4.313,3.237a1.473,1.473,0,0,1-2.094-.355l-3.009-4.477a2.806,2.806,0,0,0-2.3-1.389,2.7,2.7,0,0,0-2.4,1.74l-2.318,4.872a1.466,1.466,0,0,1-2.017.658l-4.744-2.565a2.664,2.664,0,0,0-3.262.274,2.907,2.907,0,0,0-.735,2.218l.215,5.391a1.455,1.455,0,0,1-.4,1.078,1.472,1.472,0,0,1-1.079.442l-5.45-.065a2.739,2.739,0,0,0-2.487,1.253,2.772,2.772,0,0,0,.163,2.81l2.7,4.675a1.446,1.446,0,0,1-.606,2.035l-4.805,2.447a2.555,2.555,0,0,0-.221,4.7l4.56,2.886a1.444,1.444,0,0,1,.41,2.082l-3.121,4.4a2.557,2.557,0,0,0,2,4.268l2.17.177-17.1,15.424A1.168,1.168,0,0,0,298.035,357.665Zm62.724-9.277a2.318,2.318,0,0,0,.2-.244,2.272,2.272,0,0,0,.529-.49,2.862,2.862,0,0,0,.333-2.561l-.482-1.671,12.847,14.248-8.914.826a1.171,1.171,0,0,0-1.055,1.029l-.906,7.753L350.524,353.1l1-4.859a1.475,1.475,0,0,1,.2-.482,1.439,1.439,0,0,1,1.035-.119l5.221,1.355h0A2.79,2.79,0,0,0,360.759,348.388Zm-47.284-9.851a.885.885,0,0,1-.52-.155.159.159,0,0,1,0-.05h0a1.072,1.072,0,0,1,.213-.455l3.121-4.4a3.909,3.909,0,0,0,.38-.671,3.729,3.729,0,0,0-1.438-4.67l-4.559-2.886a1.353,1.353,0,0,1-.3-.248l0,0a.339.339,0,0,1-.081-.127c.006-.031.1-.184.423-.348l2.468-1.258,2.335-1.191a3.723,3.723,0,0,0,1.614-5.1c-.022-.041-.041-.084-.065-.125l-2.693-4.674a1.1,1.1,0,0,1-.169-.47.206.206,0,0,1,0-.047.189.189,0,0,1,.051-.032,1.122,1.122,0,0,1,.482-.08l1.39.016,4.052.049a3.732,3.732,0,0,0,3.513-2.412c.017-.045.022-.093.037-.138a3.8,3.8,0,0,0,.2-1.353l-.214-5.39c-.014-.362.072-.519.143-.542a1.056,1.056,0,0,1,.475.156l3.9,2.105.851.459c.057.03.116.054.175.081a3.778,3.778,0,0,0,1.622.378,3.692,3.692,0,0,0,2.548-1.017,3.827,3.827,0,0,0,.829-1.132l2.317-4.874a1.629,1.629,0,0,1,.129-.225.785.785,0,0,1,.169-.188.14.14,0,0,1,.029-.019.316.316,0,0,1,.087.045.535.535,0,0,1,.071.055,1.355,1.355,0,0,1,.24.278l2.041,3.034.971,1.443a3.792,3.792,0,0,0,.843.892,3.716,3.716,0,0,0,2.262.777,3.656,3.656,0,0,0,.716-.077,3.746,3.746,0,0,0,1.545-.684l1.763-1.324,2.551-1.914a1.015,1.015,0,0,1,.457-.226l.037,0a.866.866,0,0,1,.176.52l.583,5.362a3.72,3.72,0,0,0,1.515,2.623,3.714,3.714,0,0,0,2.817.675l5.328-.862a1.153,1.153,0,0,1,.54.025.127.127,0,0,1,.011.041,1.039,1.039,0,0,1-.094.5l-1.974,5.019q-.071.181-.124.364v0c-.007.028-.012.056-.019.083a3.7,3.7,0,0,0,.058,2.08,3.768,3.768,0,0,0,.168.434,3.651,3.651,0,0,0,.295.494,3.727,3.727,0,0,0,1.923,1.476l3.818,1.278,1.3.434a1.178,1.178,0,0,1,.415.216.372.372,0,0,1,.056.058.556.556,0,0,1-.123.225,1.462,1.462,0,0,1-.207.213l-2.559,2.214-1.521,1.315a3.731,3.731,0,0,0-.255,5.439l3.737,3.892a.911.911,0,0,1,.286.461h0a.168.168,0,0,1-.024.026s0,.006-.009.012h0a1.077,1.077,0,0,1-.462.2l-5.251,1.228a3.7,3.7,0,0,0-2.679,2.367l-.008.022a3.643,3.643,0,0,0-.167.652v0a2.538,2.538,0,0,0-.485,2.16l1.5,5.178h0l-5.145-1.334a3.8,3.8,0,0,0-.64-.1c-.108-.009-.215-.021-.323-.021h0a3.728,3.728,0,0,0-.581.051c-.042.006-.083.011-.123.018a3.66,3.66,0,0,0-.486.129c-.066.022-.131.048-.2.074-.1.04-.2.085-.293.134a3.76,3.76,0,0,0-.364.212q-.06.04-.118.081a3.7,3.7,0,0,0-.507.435l0,0a3.739,3.739,0,0,0-1.573,2.359l-.931,4.542a1.164,1.164,0,0,0,.085.713h0a1.192,1.192,0,0,1-.129-.071l-.028-.017a1.734,1.734,0,0,1-.184-.146l-4-3.628a3.766,3.766,0,0,0-.986-.634,3.715,3.715,0,0,0-3.9.5,3.8,3.8,0,0,0-.545.54l-3.415,4.177a1.639,1.639,0,0,1-.131.142,1.077,1.077,0,0,1-.136.117s-.008.009-.012.01l-.012.007a.393.393,0,0,1-.133.064h0a.251.251,0,0,1-.042-.03l0,0a1.11,1.11,0,0,1-.247-.428l-1.246-3.409a1.164,1.164,0,0,0,.27-1.219l-.086-.234a3.741,3.741,0,0,0-3.043-2.453h0a3.819,3.819,0,0,0-.6-.159l-.016,0a3.572,3.572,0,0,0-.64-.058,3.738,3.738,0,0,0-.754.077h-.005a3.742,3.742,0,0,0-.726.228h0l-4.765,2.026a1.189,1.189,0,0,1,.01-.14l.719-5.347v0a3.73,3.73,0,0,0-3.228-4.227h0a3.574,3.574,0,0,0-.4-.12,3.355,3.355,0,0,0-.582-.106l-1.818-.148Zm4.738,3.131,1.185-.145a1.412,1.412,0,0,1,.3.268,1.455,1.455,0,0,1,.3,1.12l-.713,5.345a2.919,2.919,0,0,0,.595,2.358,2.285,2.285,0,0,0,1.414.752,2.928,2.928,0,0,0,2.514-.02l4.962-2.112a1.483,1.483,0,0,1,.576-.121,1.445,1.445,0,0,1,.6.73l.06.165L311.95,366.284l-.27-8.11a1.17,1.17,0,0,0-1.075-1.128l-8.664-.7Z" transform="translate(-297.973 -295.214)" fill="#fff"/>
</svg>
