<svg xmlns="http://www.w3.org/2000/svg" width="23.649" height="28.142" viewBox="0 0 23.649 28.142">
  <path id="Icon_awesome-apple" data-name="Icon awesome-apple" d="M20.053,17.122a5.865,5.865,0,0,1,3.141-5.328,6.751,6.751,0,0,0-5.322-2.8c-2.23-.176-4.668,1.3-5.56,1.3-.942,0-3.1-1.238-4.8-1.238C4.007,9.111.281,11.85.281,17.423a15.66,15.66,0,0,0,.9,5.1c.8,2.306,3.707,7.96,6.735,7.866,1.583-.038,2.7-1.125,4.762-1.125,2,0,3.035,1.125,4.8,1.125,3.053-.044,5.68-5.183,6.446-7.5A6.228,6.228,0,0,1,20.053,17.122ZM16.5,6.805A5.918,5.918,0,0,0,18.005,2.25a6.662,6.662,0,0,0-4.266,2.193A6.01,6.01,0,0,0,12.131,8.96,5.277,5.277,0,0,0,16.5,6.805Z" transform="translate(-0.281 -2.25)" fill="#1f39e0"/>
</svg>
